<?xml version="1.0" standalone="no"?>
<!DOCTYPE svg PUBLIC "-//W3C//DTD SVG 20010904//EN"
 "http://www.w3.org/TR/2001/REC-SVG-20010904/DTD/svg10.dtd">
<svg version="1.0" xmlns="http://www.w3.org/2000/svg"
 width="800.000000pt" height="470.000000pt" viewBox="0 0 800.000000 470.000000"
 preserveAspectRatio="xMidYMid meet">

<g transform="translate(0.000000,470.000000) scale(0.100000,-0.100000)"
fill="#000000" stroke="none">
<path d="M1398 4151 c-39 -5 -46 -9 -38 -21 15 -23 12 -29 -10 -23 -11 3 -20
14 -20 24 0 15 -7 19 -40 19 -22 0 -40 -4 -40 -10 0 -5 -8 -10 -17 -10 -15 0
-16 2 -3 10 11 7 4 10 -27 10 -45 0 -50 -7 -32 -43 7 -12 8 -19 4 -15 -5 4
-15 2 -23 -5 -13 -10 -15 -7 -10 24 l6 36 -104 1 c-63 1 -102 -3 -99 -9 9 -13
-9 -11 -23 3 -9 9 -15 8 -27 -8 -10 -13 -13 -14 -10 -3 4 10 0 16 -9 16 -8 0
-12 -5 -9 -10 4 -6 0 -8 -10 -4 -11 4 -14 2 -10 -9 7 -19 -6 -18 -29 3 -12 10
-18 12 -18 4 0 -7 -4 -9 -10 -6 -14 9 -13 -48 1 -62 13 -13 39 6 39 26 0 6 4
11 10 11 5 0 9 -10 7 -21 -1 -12 4 -24 12 -27 9 -3 11 0 7 9 -4 8 1 4 11 -8
27 -33 108 -74 121 -61 7 7 10 4 9 -8 -2 -14 6 -20 26 -22 30 -4 37 15 10 25
-10 3 -30 14 -44 24 -14 10 -29 15 -33 12 -4 -4 -9 3 -13 16 -3 12 -11 20 -17
18 -8 -3 -12 6 -12 24 0 21 4 29 18 29 10 0 18 -5 18 -11 0 -14 25 -39 39 -39
6 0 11 -5 11 -11 0 -8 5 -7 15 1 13 10 18 11 28 1 9 -10 8 -11 -5 -6 -10 4
-18 3 -18 -3 0 -14 60 -36 88 -33 13 1 21 -2 18 -7 -3 -6 6 -17 20 -27 25 -16
25 -16 14 4 -6 12 -7 21 -2 21 6 0 12 -9 15 -21 4 -15 0 -23 -13 -26 -11 -3
-16 -11 -13 -19 3 -8 0 -14 -6 -14 -6 0 -11 6 -11 14 0 9 -7 12 -20 9 -38 -10
-21 -31 34 -43 22 -4 30 -11 28 -23 -2 -12 2 -15 13 -11 9 4 15 3 13 -2 -2 -5
7 -19 20 -31 12 -13 22 -21 22 -18 0 3 10 -4 22 -15 13 -12 24 -17 26 -11 4
11 42 2 42 -11 0 -5 -5 -6 -12 -2 -6 4 -8 3 -5 -3 4 -6 23 -14 42 -17 19 -4
35 -11 35 -17 0 -6 5 -7 10 -4 15 9 12 38 -5 61 -12 15 -16 16 -24 5 -6 -9
-16 -11 -32 -5 -27 9 -34 11 -50 13 -5 0 -7 6 -4 11 4 6 16 8 28 5 15 -4 18
-3 9 3 -7 5 -10 16 -6 25 6 16 -10 23 -38 18 -5 0 -8 6 -8 14 0 8 -4 15 -10
15 -5 0 -10 5 -10 11 0 6 7 9 14 6 11 -4 13 -1 9 11 -3 9 6 2 19 -16 18 -23
27 -29 31 -19 6 17 45 29 53 16 3 -5 -2 -9 -11 -9 -11 0 -15 -5 -12 -14 3 -8
1 -17 -6 -20 -7 -3 -2 -3 10 0 12 3 31 0 43 -6 17 -9 20 -8 20 9 0 14 5 19 15
15 9 -4 15 -19 15 -35 0 -22 -5 -29 -20 -29 -11 0 -23 6 -26 14 -9 23 -32 26
-37 5 -4 -16 -2 -19 14 -14 14 5 22 0 28 -17 6 -13 10 -17 10 -9 1 10 4 11 14
3 10 -8 20 -5 41 15 21 19 30 22 36 13 6 -10 26 -15 83 -19 5 -1 6 -5 2 -10
-3 -5 -17 -7 -31 -5 -22 4 -25 2 -20 -12 5 -13 1 -15 -19 -12 -14 3 -28 1 -31
-4 -3 -5 -12 -4 -19 2 -21 17 -48 8 -51 -17 -4 -21 5 -28 28 -24 4 0 5 -6 1
-15 -4 -10 2 -17 16 -21 30 -8 26 -26 -11 -42 -24 -11 -33 -11 -36 -3 -7 23
-22 11 -16 -13 5 -20 3 -25 -14 -25 -12 0 -22 9 -25 21 -3 12 -10 18 -16 14
-6 -3 -11 -1 -11 6 0 7 -3 9 -7 6 -3 -4 -17 2 -29 14 -13 12 -29 19 -37 16 -7
-3 -18 3 -24 12 -9 14 -8 18 3 18 8 0 14 -4 14 -8 0 -5 7 -6 15 -3 8 4 15 12
15 20 0 8 -6 11 -15 8 -11 -5 -13 -2 -9 9 4 11 -6 22 -35 36 -22 12 -47 21
-54 21 -8 0 -20 7 -27 15 -9 11 -22 14 -42 10 -21 -5 -27 -3 -23 7 3 8 -17 24
-55 44 -52 27 -62 30 -77 18 -10 -7 -22 -13 -28 -14 -5 0 -4 4 3 9 9 5 -2 14
-35 28 -26 12 -65 28 -85 37 l-38 16 0 -201 0 -200 23 6 22 7 -22 -17 c-19
-14 -23 -26 -23 -75 0 -49 3 -60 19 -65 22 -7 61 -39 61 -50 0 -4 -6 -5 -14
-2 -7 3 -19 0 -25 -6 -10 -9 -12 -9 -9 2 2 8 -6 16 -17 18 -16 3 -17 2 -5 -6
10 -7 11 -11 3 -11 -10 0 -13 -37 -13 -151 0 -82 4 -148 8 -145 5 3 8 -5 7
-17 -2 -24 21 -51 57 -68 13 -5 41 -21 63 -34 22 -14 50 -29 62 -34 11 -5 24
-15 28 -21 3 -5 11 -8 16 -5 5 4 9 1 9 -5 0 -6 6 -10 14 -8 8 2 16 -1 18 -7 7
-21 -39 -15 -66 10 -15 14 -38 26 -51 27 -13 1 -21 6 -19 10 3 4 -2 8 -11 8
-10 0 -30 11 -47 25 -16 14 -37 25 -46 24 -10 0 -5 -5 11 -11 15 -5 27 -14 27
-18 0 -5 -16 -2 -35 6 -19 7 -37 14 -40 14 -3 0 -5 -162 -5 -360 l1 -360 556
0 c305 1 592 5 637 11 148 18 283 57 412 119 106 51 133 70 209 143 60 57 85
89 80 97 -5 8 -4 11 2 7 28 -17 124 192 154 338 33 154 22 472 -17 533 -8 12
-12 27 -9 32 3 6 -3 10 -14 10 -11 0 -22 9 -26 19 -6 20 -40 36 -83 40 -7 0
-11 5 -8 10 4 5 -10 19 -29 31 -41 25 -45 33 -10 20 14 -5 29 -9 33 -7 4 1 9
-2 12 -8 6 -13 67 -54 96 -65 22 -9 23 -9 9 29 -63 181 -214 346 -402 440 -69
34 -206 76 -295 89 -53 8 -57 7 -61 -12 -4 -20 -4 -20 -6 2 -1 21 -5 22 -75
22 -50 0 -76 -4 -79 -12 -4 -10 -6 -10 -6 0 -1 8 -25 12 -86 12 -61 0 -85 -3
-85 -12 0 -9 -4 -8 -10 2 -8 12 -10 12 -10 1 0 -11 -3 -11 -16 0 -13 10 -17
10 -25 -2 -6 -10 -9 -11 -9 -1 0 9 -18 12 -68 11 -37 -1 -77 0 -87 3 -11 3
-41 2 -67 -1z m-288 -31 c0 -5 -4 -10 -10 -10 -5 0 -10 5 -10 10 0 6 5 10 10
10 6 0 10 -4 10 -10z m706 -20 c-10 -3 -17 -9 -17 -13 1 -12 -9 -9 -24 7 -13
13 -12 15 7 18 32 5 57 -3 34 -12z m-788 -15 c-3 -3 -9 2 -12 12 -6 14 -5 15
5 6 7 -7 10 -15 7 -18z m437 15 c3 -5 1 -10 -6 -10 -6 0 -22 -11 -35 -26 -23
-24 -24 -24 -24 -4 0 13 8 24 20 27 11 3 20 9 20 14 0 12 17 11 25 -1z m65 0
c0 -5 -7 -7 -15 -4 -8 4 -15 8 -15 10 0 2 7 4 15 4 8 0 15 -4 15 -10z m337
-12 c-3 -8 -6 -5 -6 6 -1 11 2 17 5 13 3 -3 4 -12 1 -19z m-737 -23 c0 -8 -2
-15 -4 -15 -2 0 -6 7 -10 15 -3 8 -1 15 4 15 6 0 10 -7 10 -15z m483 -9 c4
-10 -10 -13 -56 -13 -34 0 -56 2 -49 4 6 3 10 8 7 13 -2 4 6 8 20 8 14 0 22
-4 19 -9 -3 -5 0 -9 6 -9 6 0 13 6 16 14 6 17 30 11 37 -8z m230 10 c4 -10 1
-13 -9 -9 -15 6 -19 23 -5 23 5 0 11 -7 14 -14z m-633 -32 c-13 -33 -14 -32
15 -26 16 3 25 0 25 -8 0 -7 -7 -10 -15 -7 -8 4 -17 2 -20 -3 -11 -17 -25 -11
-25 11 0 16 -4 19 -21 14 -20 -7 -20 -6 -3 14 13 15 20 17 26 8 5 -8 8 -7 8 6
0 9 4 17 10 17 6 0 6 -9 0 -26z m230 6 c-7 -5 -11 -19 -8 -33 4 -22 3 -24 -13
-14 -17 10 -17 13 -2 38 9 16 21 25 26 22 5 -3 4 -9 -3 -13z m70 -25 c11 -13
10 -14 -4 -9 -9 3 -16 10 -16 15 0 13 6 11 20 -6z m203 -2 c-7 -2 -13 -9 -13
-14 0 -6 5 -7 10 -4 6 3 10 1 10 -5 0 -10 -36 -6 -49 6 -9 8 13 24 32 23 12 0
16 -3 10 -6z m-59 -22 c3 -5 -1 -11 -9 -14 -9 -4 -12 -1 -8 9 6 16 10 17 17 5z
m-34 -21 c0 -5 -7 -10 -16 -10 -8 0 -12 5 -9 10 3 6 10 10 16 10 5 0 9 -4 9
-10z m-280 -10 c0 -5 -5 -10 -11 -10 -5 0 -7 5 -4 10 3 6 8 10 11 10 2 0 4 -4
4 -10z m163 -15 c-5 -13 -23 -22 -23 -11 0 15 14 35 21 31 4 -3 6 -12 2 -20z
m345 -10 c-3 -3 -9 2 -12 12 -6 14 -5 15 5 6 7 -7 10 -15 7 -18z m-451 -7 c-3
-8 -6 -5 -6 6 -1 11 2 17 5 13 3 -3 4 -12 1 -19z m-152 3 c12 -2 -25 -31 -39
-31 -6 0 -4 4 4 10 8 5 11 12 7 16 -3 4 -13 2 -20 -4 -10 -9 -14 -8 -14 2 0
11 24 14 62 7z m315 -17 c0 -8 -4 -14 -9 -14 -6 0 -9 9 -8 19 1 22 17 18 17
-5z m-699 3 c15 -11 14 -14 -6 -29 -21 -16 -22 -16 -22 13 0 32 4 34 28 16z
m669 -7 c0 -5 -4 -10 -10 -10 -5 0 -10 5 -10 10 0 6 5 10 10 10 6 0 10 -4 10
-10z m-10 -47 c0 -7 -4 -13 -10 -13 -5 0 -10 7 -10 15 0 8 -6 15 -14 15 -7 0
-19 7 -27 16 -11 13 -7 13 24 -2 20 -10 37 -24 37 -31z m266 -1 c-11 -10 -15
4 -8 28 l7 25 3 -23 c2 -13 1 -26 -2 -30z m25 25 c-10 -9 -11 -8 -5 6 3 10 9
15 12 12 3 -3 0 -11 -7 -18z m-807 -18 c-5 -9 -34 -13 -34 -5 0 2 3 12 6 20 5
13 9 14 20 5 8 -6 11 -15 8 -20z m863 9 c-3 -8 -6 -5 -6 6 -1 11 2 17 5 13 3
-3 4 -12 1 -19z m-322 2 c3 -5 1 -10 -4 -10 -6 0 -11 5 -11 10 0 6 2 10 4 10
3 0 8 -4 11 -10z m35 -5 c0 -8 -2 -15 -4 -15 -2 0 -6 7 -10 15 -3 8 -1 15 4
15 6 0 10 -7 10 -15z m-649 -42 c13 -16 12 -17 -3 -4 -10 7 -18 15 -18 17 0 8
8 3 21 -13z m-19 -13 c6 0 8 -7 4 -15 -3 -8 0 -15 6 -15 6 0 17 -8 25 -17 13
-17 14 -16 10 5 -5 23 7 30 19 10 8 -12 -39 -58 -59 -58 -8 0 -8 3 -2 8 13 9
18 32 7 32 -13 0 -47 33 -50 49 -2 9 3 11 13 7 9 -3 21 -6 27 -6z m134 -16
c-3 -9 -6 -24 -6 -35 0 -10 -4 -19 -9 -19 -5 0 -8 8 -6 18 2 9 4 25 4 35 1 9
6 17 12 17 6 0 8 -7 5 -16z m109 -4 c-3 -5 -1 -10 4 -10 6 0 11 -4 11 -10 0
-5 -7 -10 -15 -10 -16 0 -20 -12 -8 -23 3 -4 11 -3 17 2 25 19 42 19 42 0 0
-11 -4 -19 -8 -19 -4 0 -21 -13 -38 -29 -25 -23 -30 -34 -25 -51 6 -20 4 -22
-14 -17 -11 3 -21 1 -21 -4 0 -5 -4 -9 -10 -9 -15 0 -12 27 5 44 14 14 14 17
-5 28 -24 15 -26 25 -5 25 8 0 11 -5 8 -10 -3 -5 0 -7 8 -5 9 3 13 18 12 42
-1 20 2 34 7 31 5 -3 14 4 20 15 6 11 13 20 16 20 3 0 2 -4 -1 -10z m-348 -15
c0 -8 -4 -15 -9 -15 -10 0 -11 14 -1 23 9 10 10 9 10 -8z m603 -18 c0 -5 -4
-5 -10 -2 -5 3 -10 14 -10 23 0 15 2 15 10 2 5 -8 10 -19 10 -23z m1045 14
c-3 -6 -11 -11 -16 -11 -5 0 -4 6 3 14 14 16 24 13 13 -3z m-1215 -30 c0 -6
-4 -12 -8 -15 -5 -3 -9 1 -9 9 0 8 4 15 9 15 4 0 8 -4 8 -9z m337 -33 c-3 -7
-5 -2 -5 12 0 14 2 19 5 13 2 -7 2 -19 0 -25z m1020 -35 c0 -6 -16 0 -36 15
-57 41 -59 46 -10 21 25 -13 46 -29 46 -36z m-1692 37 c3 -5 1 -10 -4 -10 -6
0 -11 5 -11 10 0 6 2 10 4 10 3 0 8 -4 11 -10z m1655 -40 c25 -16 42 -30 37
-30 -13 0 -96 45 -97 53 0 13 14 7 60 -23z m-987 -6 c-4 -12 -8 -13 -14 -3 -9
15 -2 32 11 24 5 -3 6 -13 3 -21z m-643 2 c0 -3 -4 -8 -10 -11 -5 -3 -10 -1
-10 4 0 6 5 11 10 11 6 0 10 -2 10 -4z m140 -12 c0 -8 -4 -12 -10 -9 -5 3 -10
10 -10 16 0 5 5 9 10 9 6 0 10 -7 10 -16z m475 -6 c35 -16 31 -25 -10 -26 -38
-1 -38 -1 -29 22 7 19 6 19 39 4z m-323 -33 c0 -5 -5 -11 -11 -13 -6 -2 -11 4
-11 13 0 9 5 15 11 13 6 -2 11 -8 11 -13z m384 -4 c-3 -4 36 -11 87 -15 178
-14 290 -60 355 -147 18 -24 41 -53 50 -64 9 -11 18 -31 19 -45 1 -14 5 -63 8
-110 12 -150 -28 -267 -121 -349 -79 -69 -132 -84 -331 -89 l-173 -4 -1 243
c0 134 -3 238 -6 231 -6 -15 -23 -6 -23 13 0 9 6 12 15 8 14 -5 16 14 14 145
0 83 2 156 6 162 3 5 24 10 46 10 21 0 39 5 39 10 0 6 5 10 11 10 5 0 8 -4 5
-9z m-452 -13 c-3 -4 -11 -5 -19 -1 -21 7 -19 12 4 10 11 0 18 -5 15 -9z m116
-18 c0 -5 -4 -10 -10 -10 -5 0 -10 5 -10 10 0 6 5 10 10 10 6 0 10 -4 10 -10z
m190 -10 c0 -5 -2 -10 -4 -10 -3 0 -8 5 -11 10 -3 6 -1 10 4 10 6 0 11 -4 11
-10z m30 0 c0 -5 -2 -10 -4 -10 -3 0 -8 5 -11 10 -3 6 -1 10 4 10 6 0 11 -4
11 -10z m-633 -22 c-3 -8 -6 -5 -6 6 -1 11 2 17 5 13 3 -3 4 -12 1 -19z m1397
7 c3 -8 1 -15 -4 -15 -6 0 -10 7 -10 15 0 8 2 15 4 15 2 0 6 -7 10 -15z m-984
-5 c0 -5 -5 -10 -11 -10 -5 0 -7 5 -4 10 3 6 8 10 11 10 2 0 4 -4 4 -10z m30
-5 c0 -8 -4 -15 -8 -15 -5 0 -9 7 -9 15 0 8 4 15 9 15 4 0 8 -7 8 -15z m-385
-5 c3 -5 1 -10 -4 -10 -6 0 -11 5 -11 10 0 6 2 10 4 10 3 0 8 -4 11 -10z m515
0 c0 -5 -7 -10 -16 -10 -8 0 -12 5 -9 10 3 6 10 10 16 10 5 0 9 -4 9 -10z
m-560 -30 c0 -5 -5 -10 -11 -10 -5 0 -7 5 -4 10 3 6 8 10 11 10 2 0 4 -4 4
-10z m505 -17 c-3 -41 -4 -43 -19 -43 -15 0 -11 35 7 58 13 17 14 16 12 -15z
m-545 1 c0 -8 -4 -12 -10 -9 -5 3 -10 10 -10 16 0 5 5 9 10 9 6 0 10 -7 10
-16z m390 9 c0 -5 -5 -15 -10 -23 -8 -12 -10 -11 -10 8 0 12 5 22 10 22 6 0
10 -3 10 -7z m1353 -8 c-3 -9 -8 -14 -10 -11 -3 3 -2 9 2 15 9 16 15 13 8 -4z
m-1272 -18 c-13 -13 -26 -3 -16 12 3 6 11 8 17 5 6 -4 6 -10 -1 -17z m33 -52
c-6 -16 -24 -21 -24 -7 0 11 11 22 21 22 5 0 6 -7 3 -15z m-84 -15 c0 -5 -4
-10 -10 -10 -5 0 -10 5 -10 10 0 6 5 10 10 10 6 0 10 -4 10 -10z m-340 -62 c0
-9 -34 -11 -43 -2 -3 3 -3 12 0 20 4 10 9 11 24 1 10 -6 19 -15 19 -19z m55
-46 c-9 -10 -44 20 -39 33 5 12 10 10 24 -8 10 -12 17 -23 15 -25z m450 -11
c-8 -14 -35 -14 -35 0 0 6 7 9 15 5 8 -3 15 0 15 6 0 6 3 9 6 5 3 -3 3 -10 -1
-16z m-478 -7 c-3 -3 -12 -4 -19 -1 -8 3 -5 6 6 6 11 1 17 -2 13 -5z m48 -22
c-3 -3 -11 0 -18 7 -9 10 -8 11 6 5 10 -3 15 -9 12 -12z m-35 -28 c0 -2 -9 0
-20 6 -11 6 -20 13 -20 16 0 2 9 0 20 -6 11 -6 20 -13 20 -16z m75 -18 c19 -8
35 -18 35 -22 0 -3 -8 -3 -17 1 -10 4 -34 14 -53 21 -19 7 -27 13 -17 14 10 0
33 -7 52 -14z m1203 -21 c-3 -3 -9 2 -12 12 -6 14 -5 15 5 6 7 -7 10 -15 7
-18z m-872 -62 c-10 -10 -19 5 -10 18 6 11 8 11 12 0 2 -7 1 -15 -2 -18z m4
-53 c0 -5 -5 -10 -11 -10 -5 0 -7 5 -4 10 3 6 8 10 11 10 2 0 4 -4 4 -10z
m-420 -120 c0 -5 -4 -10 -10 -10 -5 0 -10 5 -10 10 0 6 5 10 10 10 6 0 10 -4
10 -10z m1525 0 c3 -5 1 -10 -4 -10 -6 0 -11 5 -11 10 0 6 2 10 4 10 3 0 8 -4
11 -10z m-295 -40 c0 -5 -4 -10 -10 -10 -5 0 -10 5 -10 10 0 6 5 10 10 10 6 0
10 -4 10 -10z m460 -60 c0 -5 -2 -10 -4 -10 -3 0 -8 5 -11 10 -3 6 -1 10 4 10
6 0 11 -4 11 -10z m-1624 -38 c-22 -5 -30 3 -21 18 5 8 11 7 22 -2 15 -12 14
-13 -1 -16z m179 18 c-3 -5 -17 -10 -31 -10 -14 0 -22 4 -19 10 3 6 17 10 31
10 14 0 22 -4 19 -10z m25 -50 c0 -5 -7 -7 -15 -4 -8 4 -15 8 -15 10 0 2 7 4
15 4 8 0 15 -4 15 -10z m750 -14 c0 -3 -4 -8 -10 -11 -5 -3 -10 -1 -10 4 0 6
5 11 10 11 6 0 10 -2 10 -4z m383 -39 c4 -10 -2 -13 -21 -9 -24 5 -25 6 -7 13
11 4 21 8 21 8 1 1 4 -5 7 -12z m-623 -7 c0 -5 -4 -10 -10 -10 -5 0 -10 5 -10
10 0 6 5 10 10 10 6 0 10 -4 10 -10z m310 1 c0 -6 -4 -13 -10 -16 -5 -3 -10 1
-10 9 0 9 5 16 10 16 6 0 10 -4 10 -9z m-3 -47 c4 -13 -24 -27 -37 -19 -5 3
-7 12 -3 21 6 17 34 15 40 -2z m-822 -64 c3 -5 1 -10 -4 -10 -6 0 -11 5 -11
10 0 6 2 10 4 10 3 0 8 -4 11 -10z m213 -78 c2 -7 -2 -10 -12 -6 -9 3 -16 11
-16 16 0 13 23 5 28 -10z m57 -22 c3 -5 1 -10 -4 -10 -6 0 -11 5 -11 10 0 6 2
10 4 10 3 0 8 -4 11 -10z m790 -28 c-3 -3 -11 0 -18 7 -9 10 -8 11 6 5 10 -3
15 -9 12 -12z m-1000 -2 c3 -5 1 -10 -4 -10 -6 0 -11 5 -11 10 0 6 2 10 4 10
3 0 8 -4 11 -10z m-49 -67 c-10 -10 -19 5 -10 18 6 11 8 11 12 0 2 -7 1 -15
-2 -18z m-409 -25 c-3 -8 -6 -5 -6 6 -1 11 2 17 5 13 3 -3 4 -12 1 -19z m1257
1 c-8 -14 -24 -10 -24 6 0 9 6 12 15 9 8 -4 12 -10 9 -15z m-1074 -15 c0 -8
-5 -12 -10 -9 -6 3 -13 -1 -16 -10 -6 -14 -8 -14 -19 2 -12 16 -10 19 13 24
15 4 28 7 30 8 1 0 2 -6 2 -15z m1310 -14 c0 -5 -5 -10 -11 -10 -5 0 -7 5 -4
10 3 6 8 10 11 10 2 0 4 -4 4 -10z m-1393 -26 c-3 -3 -12 -4 -19 -1 -8 3 -5 6
6 6 11 1 17 -2 13 -5z m553 -86 c0 -11 -12 -10 -30 2 -12 7 -10 9 8 7 12 0 22
-5 22 -9z"/>
<path d="M2882 3958 l3 -193 67 -35 c36 -19 74 -43 83 -53 9 -9 31 -25 48 -34
18 -9 48 -27 67 -41 31 -21 30 -19 -7 15 -24 21 -43 45 -43 53 1 12 3 11 11
-2 5 -10 17 -18 24 -18 8 0 15 -3 15 -8 0 -4 16 -16 35 -26 39 -21 70 -51 41
-40 -9 3 -16 3 -16 0 0 -10 137 -76 144 -69 3 4 6 1 6 -5 0 -11 75 -37 96 -34
7 1 14 -7 17 -19 9 -33 27 -12 27 31 0 31 -5 43 -25 56 -28 18 -33 34 -10 34
8 0 15 -7 15 -16 0 -8 5 -12 10 -9 7 4 10 114 10 306 l-1 299 -310 0 -309 0 2
-192z m192 -168 c14 -5 26 -14 26 -19 0 -13 -37 -2 -51 15 -14 17 -9 17 25 4z
m50 -46 c3 -8 2 -12 -4 -9 -6 3 -10 10 -10 16 0 14 7 11 14 -7z m168 -77 c32
-32 110 -78 124 -73 7 3 14 1 14 -4 0 -6 -5 -10 -11 -10 -5 0 -7 -5 -3 -12 5
-8 2 -9 -10 -5 -10 4 -24 7 -31 7 -8 0 -27 12 -43 28 -16 15 -39 35 -51 44
-22 18 -28 38 -12 38 5 0 16 -6 23 -13z m42 -123 c9 -3 16 -10 16 -14 0 -10
-38 -1 -46 11 -6 10 7 12 30 3z"/>
<path d="M3600 3821 l0 -329 35 -21 c45 -26 46 -43 3 -30 -18 5 -34 9 -36 9
-1 0 -2 -25 -1 -55 1 -36 6 -52 12 -46 13 13 37 2 67 -30 14 -15 43 -36 64
-47 34 -17 36 -20 17 -25 -11 -3 -21 -1 -21 4 0 5 -6 9 -14 9 -8 0 -17 6 -20
13 -3 6 -3 2 0 -11 6 -23 5 -23 -23 -9 -15 8 -37 17 -48 19 -11 1 -24 8 -28
13 -4 6 -6 -3 -5 -20 2 -18 8 -29 16 -28 6 2 12 -2 12 -7 0 -6 -7 -10 -15 -10
-8 0 -15 -9 -15 -20 0 -24 15 -27 24 -4 4 11 13 13 28 8 24 -7 39 -24 33 -34
-2 -4 9 -5 24 -2 19 3 44 -7 82 -31 30 -19 58 -35 62 -35 5 0 18 -10 29 -22
l21 -22 -24 8 c-13 4 -36 7 -51 6 -16 0 -28 3 -28 8 0 5 7 7 15 4 27 -11 16 5
-22 31 -42 28 -73 33 -73 10 0 -23 -28 -18 -45 9 -11 16 -23 22 -40 20 -14 -1
-25 3 -25 9 0 5 -3 7 -6 4 -4 -4 -1 -13 6 -22 8 -10 9 -15 1 -15 -19 0 -12
-17 10 -23 24 -6 20 -33 -4 -31 -15 2 -17 -35 -16 -412 l0 -414 359 0 359 0 1
312 c0 171 2 313 3 315 11 10 370 3 406 -8 88 -26 117 -96 151 -349 10 -80 26
-173 36 -207 l17 -63 374 0 c234 0 373 4 373 10 0 5 -7 6 -17 3 -11 -4 -14 -3
-9 5 4 6 -4 33 -17 59 -28 55 -33 83 -52 283 -14 147 -21 180 -35 180 -5 0 -6
9 -3 19 7 27 -16 93 -31 88 -7 -3 -11 5 -11 22 0 19 -4 25 -17 23 -10 -2 -18
2 -18 8 0 6 5 8 10 5 19 -12 10 14 -14 39 -23 26 -37 33 -35 19 5 -32 -2 -44
-22 -38 -18 6 -19 5 -10 -13 16 -29 14 -39 -8 -45 -17 -4 -18 -2 -10 19 5 14
8 28 8 32 -3 20 3 32 16 32 8 0 15 5 15 10 0 6 -7 10 -15 10 -8 0 -15 5 -15
11 0 6 9 8 20 4 30 -10 24 2 -11 19 -26 13 -29 13 -19 1 10 -12 9 -15 -4 -15
-19 0 -21 -11 -4 -28 16 -16 -5 -17 -33 -2 -22 12 -27 55 -5 47 11 -5 11 0 -2
23 -9 16 -19 24 -23 18 -4 -7 -9 -7 -13 1 -4 6 -4 11 1 11 4 0 -3 7 -16 16
-13 9 -34 17 -47 17 -17 0 -24 5 -24 18 0 25 16 32 33 15 8 -8 17 -12 21 -9 3
4 6 1 6 -5 0 -7 9 -12 21 -12 11 0 17 -4 14 -10 -3 -5 1 -8 9 -5 50 16 50 15
37 28 -9 9 -14 9 -21 -3 -5 -8 -10 -12 -11 -7 -5 24 -4 33 6 39 6 5 3 8 -7 8
-10 0 -18 4 -18 10 0 5 8 7 18 4 14 -5 14 -4 2 4 -8 6 -17 9 -21 6 -10 -6 -59
17 -59 28 0 13 17 9 34 -7 19 -20 27 -19 19 3 -7 16 -6 16 11 0 13 -14 22 -15
36 -8 25 14 26 14 55 -16 21 -21 29 -24 41 -13 8 6 13 14 11 16 -3 2 9 18 26
36 50 53 107 202 107 278 0 61 -6 59 216 59 l204 0 0 -360 c0 -241 3 -360 10
-360 7 0 7 -7 0 -21 -14 -25 3 -51 28 -42 15 4 15 3 2 -7 -12 -9 -11 -10 10
-8 14 1 36 -4 50 -12 14 -7 27 -12 30 -11 9 5 10 -14 0 -29 -8 -12 -11 -12
-27 2 -10 9 -27 18 -38 20 -11 1 -26 11 -33 21 -17 23 -32 22 -32 -3 0 -11 6
-20 13 -20 7 0 8 -3 2 -8 -15 -11 -17 -84 -2 -111 9 -19 9 -25 0 -28 -16 -6
-19 -233 -3 -233 6 0 10 -6 10 -14 0 -8 7 -22 16 -30 10 -11 11 -16 3 -16 -6
0 -18 8 -25 18 -12 15 -13 9 -14 -41 l0 -57 364 0 365 1 1 238 c0 210 -2 239
-16 245 -9 3 -20 4 -24 1 -12 -8 -31 30 -24 48 6 17 45 11 43 -7 -3 -22 1 -36
9 -36 5 0 10 51 11 113 l2 113 -50 28 c-66 35 -66 44 -1 11 54 -28 67 -20 23
15 -20 15 -22 18 -6 11 32 -16 33 -15 33 35 0 47 -13 84 -31 84 -6 0 -17 7
-25 15 -8 8 -23 19 -32 24 -9 5 -14 12 -11 16 4 3 14 -1 23 -10 9 -9 16 -14
16 -10 0 3 10 -1 22 -9 12 -9 26 -16 30 -16 5 0 8 99 8 220 l0 220 250 0 250
0 0 275 0 276 -334 -2 c-302 -1 -335 -3 -339 -18 -4 -14 -5 -14 -6 2 -1 16
-35 17 -566 17 l-565 0 0 -85 c0 -47 -2 -85 -5 -85 -3 0 -27 16 -54 35 -60 43
-154 86 -241 110 -54 15 -116 19 -374 22 -211 3 -311 1 -317 -6 -5 -6 -6 -9
-2 -6 3 3 14 -6 23 -21 10 -14 20 -25 24 -25 12 2 66 -30 66 -39 0 -6 8 -10
17 -10 13 0 14 -3 5 -12 -9 -9 -16 -7 -31 6 -11 10 -25 16 -32 14 -7 -2 11
-19 39 -36 55 -34 78 -40 66 -19 -4 6 -3 9 1 4 5 -4 17 0 27 10 13 11 18 12
18 3 0 -7 7 -18 15 -24 13 -9 11 -11 -9 -11 -13 0 -22 3 -19 8 2 4 0 7 -6 7
-20 0 -23 -22 -5 -35 11 -8 14 -15 7 -15 -6 0 -15 5 -18 10 -3 6 -11 10 -17
10 -27 0 42 -53 119 -91 46 -23 82 -43 79 -46 -7 -7 -169 77 -189 98 -10 11
-22 17 -28 14 -5 -4 -9 -2 -9 3 0 12 -47 33 -62 27 -7 -3 -45 15 -83 40 -39
24 -71 40 -73 35 -2 -6 -13 -10 -23 -10 -11 0 -17 5 -14 10 3 6 0 10 -7 10
-11 0 -11 2 0 9 10 6 7 12 -11 24 -18 12 -27 13 -36 4 -14 -14 -15 -30 -1 -22
16 10 11 -1 -7 -16 -10 -8 -14 -9 -10 -2 4 6 3 14 -3 18 -6 4 -8 9 -6 13 2 4
-2 13 -10 20 -8 7 -14 10 -14 6 0 -4 -10 1 -22 12 -12 10 -18 14 -15 7 4 -6 3
-14 -3 -18 -5 -3 -10 -2 -10 4 0 6 -13 17 -30 26 -24 12 -75 15 -280 15 l-250
0 0 -329z m540 289 c0 -5 -8 -10 -17 -10 -15 0 -16 2 -3 10 19 12 20 12 20 0z
m2500 -18 c0 -8 -1 -13 -3 -11 -1 2 -9 12 -16 22 -12 15 -12 17 3 11 9 -3 16
-13 16 -22z m-83 3 c0 -8 -4 -15 -9 -15 -4 0 -8 -7 -8 -15 0 -8 -4 -15 -10
-15 -14 0 -13 7 6 35 19 29 21 30 21 10z m-147 -10 c0 -8 -2 -15 -4 -15 -2 0
-6 7 -10 15 -3 8 -1 15 4 15 6 0 10 -7 10 -15z m90 5 c0 -5 -2 -10 -4 -10 -3
0 -8 5 -11 10 -3 6 -1 10 4 10 6 0 11 -4 11 -10z m110 -4 c0 -3 -4 -8 -10 -11
-5 -3 -10 -1 -10 4 0 6 5 11 10 11 6 0 10 -2 10 -4z m-1930 -71 c14 -19 14
-19 -2 -6 -10 7 -18 18 -18 24 0 6 1 8 3 6 1 -2 9 -13 17 -24z m77 -27 c-3 -8
-6 -5 -6 6 -1 11 2 17 5 13 3 -3 4 -12 1 -19z m2053 -28 c0 -5 -2 -10 -4 -10
-3 0 -8 5 -11 10 -3 6 -1 10 4 10 6 0 11 -4 11 -10z m-2070 -76 c0 -2 -9 0
-20 6 -11 6 -20 13 -20 16 0 2 9 0 20 -6 11 -6 20 -13 20 -16z m2237 -16 c-3
-8 -6 -5 -6 6 -1 11 2 17 5 13 3 -3 4 -12 1 -19z m-800 -40 c-3 -7 -5 -2 -5
12 0 14 2 19 5 13 2 -7 2 -19 0 -25z m-1462 -199 c33 -6 72 -17 87 -25 39 -20
61 -68 55 -118 -7 -62 -10 -70 -31 -79 -19 -7 -19 -8 1 -22 12 -8 27 -13 35
-10 7 3 22 -2 33 -10 19 -15 19 -16 -5 -4 -16 8 -25 8 -28 1 -2 -6 -14 -4 -34
5 -25 13 -39 14 -80 4 -28 -6 -133 -11 -239 -11 l-189 0 0 140 0 140 168 0
c93 0 195 -5 227 -11z m-990 -209 c3 -6 -4 -10 -17 -10 -18 0 -20 2 -8 10 19
12 18 12 25 0z m65 -45 c32 -17 42 -39 13 -28 -20 8 -61 43 -49 43 4 0 20 -7
36 -15z m1220 -15 c0 -5 -5 -10 -11 -10 -5 0 -7 5 -4 10 3 6 8 10 11 10 2 0 4
-4 4 -10z m-1070 -9 c0 -17 -18 -21 -24 -6 -3 9 0 15 9 15 8 0 15 -4 15 -9z
m1048 -36 c-1 -1 -18 5 -36 15 -26 14 -29 19 -15 22 16 3 60 -29 51 -37z
m-1113 15 c3 -5 1 -10 -4 -10 -6 0 -11 5 -11 10 0 6 2 10 4 10 3 0 8 -4 11
-10z m1093 -30 c3 0 3 -2 0 -5 -5 -6 -78 22 -78 30 0 3 16 -2 36 -10 20 -8 39
-15 42 -15z m-1238 16 c0 -11 -19 -15 -25 -6 -3 5 1 10 9 10 9 0 16 -2 16 -4z
m1738 -15 c3 -8 -1 -12 -9 -9 -7 2 -15 10 -17 17 -3 8 1 12 9 9 7 -2 15 -10
17 -17z m-1543 -1 c3 -5 1 -10 -4 -10 -6 0 -11 5 -11 10 0 6 2 10 4 10 3 0 8
-4 11 -10z m1115 1 c0 -5 14 -14 30 -21 17 -7 29 -15 26 -17 -5 -5 -86 35 -86
42 0 3 7 5 15 5 8 0 15 -4 15 -9z m360 -25 c0 -2 -7 -7 -16 -10 -8 -3 -12 -2
-9 4 6 10 25 14 25 6z m1199 -32 c14 -12 -19 -1 -35 12 -18 14 -18 14 6 3 14
-6 27 -13 29 -15z m-2739 -14 c12 -8 11 -10 -7 -10 -12 0 -25 5 -28 10 -8 13
15 13 35 0z m1075 -9 c3 -5 1 -12 -5 -16 -5 -3 -10 1 -10 9 0 18 6 21 15 7z
m255 -16 c7 -8 10 -15 7 -15 -3 0 -12 -3 -20 -6 -9 -3 -16 3 -20 15 -6 25 14
28 33 6z m-1387 -7 c-2 -5 2 -8 9 -8 7 0 25 -6 40 -14 31 -17 45 -9 20 11 -12
10 -8 9 16 -2 34 -17 43 -28 15 -19 -12 4 -9 -1 7 -14 42 -35 14 -36 -45 -3
-30 17 -55 28 -55 24 0 -5 -4 -3 -8 3 -4 6 -16 16 -27 21 -18 10 -17 11 7 10
14 -1 24 -5 21 -9z m1487 2 c0 -5 -6 -10 -14 -10 -8 0 -18 5 -21 10 -3 6 3 10
14 10 12 0 21 -4 21 -10z m-1245 -83 c11 1 14 0 7 -3 -10 -5 -9 -9 5 -20 15
-13 13 -13 -19 0 -38 15 -82 11 -72 -6 4 -6 -3 -5 -15 2 -29 15 -17 32 17 24
l27 -6 -25 22 -25 21 40 -19 c22 -10 49 -17 60 -15z m1186 0 c-10 -9 -11 -8
-5 6 3 10 9 15 12 12 3 -3 0 -11 -7 -18z m-1527 -46 c-5 -5 84 -61 96 -61 6 0
10 -4 10 -8 0 -12 50 -33 61 -26 5 3 9 2 8 -3 -3 -20 2 -29 21 -30 13 -1 18 2
14 9 -4 7 -2 8 4 4 7 -4 12 -14 12 -22 0 -21 51 -39 62 -22 5 9 8 3 8 -15 0
-24 -2 -26 -19 -17 -29 15 -38 12 -15 -6 18 -14 18 -15 -3 -4 -13 6 -22 16
-20 22 1 6 -4 13 -12 16 -8 3 -11 0 -7 -7 5 -7 1 -8 -10 -4 -11 4 -13 8 -6 11
12 4 -51 52 -68 52 -6 0 -10 6 -10 13 0 8 -4 7 -10 -3 -9 -13 -14 -8 -11 12 0
3 -13 10 -30 13 -36 8 -63 22 -106 54 -25 19 -30 28 -22 38 9 9 7 14 -5 19 -9
3 -16 10 -16 16 0 5 18 -3 39 -19 22 -15 38 -30 35 -32z m1506 28 c0 -17 -3
-19 -13 -10 -8 6 -18 7 -22 3 -5 -4 -5 -1 -1 6 4 7 12 10 17 7 5 -4 9 -1 9 4
0 6 2 11 5 11 3 0 5 -10 5 -21z m-1420 -10 c0 -5 -4 -9 -10 -9 -5 0 -10 7 -10
16 0 8 5 12 10 9 6 -3 10 -10 10 -16z m1202 14 c-6 -2 -9 -10 -6 -15 4 -7 2
-8 -5 -4 -13 9 -5 26 12 25 9 0 8 -2 -1 -6z m1083 -3 c3 -6 -1 -7 -9 -4 -18 7
-21 14 -7 14 6 0 13 -4 16 -10z m-1978 -19 c0 -11 -5 -18 -9 -15 -4 3 -5 11
-1 19 7 21 12 19 10 -4z m1148 -1 c3 -5 2 -10 -4 -10 -5 0 -13 5 -16 10 -3 6
-2 10 4 10 5 0 13 -4 16 -10z m805 -10 c0 -5 -7 -10 -16 -10 -8 0 -12 5 -9 10
3 6 10 10 16 10 5 0 9 -4 9 -10z m-743 -15 c0 -17 -24 -28 -32 -15 -4 7 13 23
31 30 0 0 1 -7 1 -15z m853 0 c-12 -15 -30 -12 -30 6 0 5 10 9 21 9 18 0 19
-2 9 -15z m450 -11 c0 -2 -9 0 -20 6 -11 6 -20 13 -20 16 0 2 9 0 20 -6 11 -6
20 -13 20 -16z m-2043 -16 c-3 -7 -5 -2 -5 12 0 14 2 19 5 13 2 -7 2 -19 0
-25z m673 22 c0 -5 -2 -10 -4 -10 -3 0 -8 5 -11 10 -3 6 -1 10 4 10 6 0 11 -4
11 -10z m1007 -23 c-1 -7 6 -11 15 -11 10 1 16 -3 15 -8 -1 -6 6 -12 15 -13 9
-2 41 -19 71 -39 30 -20 59 -36 64 -36 6 0 28 -13 50 -29 22 -16 50 -32 64
-36 13 -4 36 -16 50 -26 14 -10 28 -17 30 -15 2 2 13 -5 23 -15 33 -32 -6 -34
-56 -3 -23 16 -45 29 -48 29 -14 2 -120 59 -120 65 0 3 -25 19 -55 35 -30 15
-55 32 -55 37 0 4 -8 8 -19 8 -10 0 -24 7 -31 15 -7 8 -17 15 -22 15 -5 0 -21
8 -35 17 l-26 17 24 7 c29 7 49 1 46 -14z m-2427 4 c0 -5 -9 -7 -20 -4 -11 3
-20 7 -20 9 0 2 9 4 20 4 11 0 20 -4 20 -9z m45 -19 c-3 -3 -11 0 -18 7 -9 10
-8 11 6 5 10 -3 15 -9 12 -12z m2170 -12 c3 -5 1 -10 -4 -10 -6 0 -11 5 -11
10 0 6 2 10 4 10 3 0 8 -4 11 -10z m-1525 -55 c0 -8 -4 -15 -10 -15 -5 0 -7 7
-4 15 4 8 8 15 10 15 2 0 4 -7 4 -15z m837 -4 c-1 -19 -37 -38 -37 -20 0 4 -8
6 -17 3 -14 -5 -15 -4 -4 4 8 6 21 8 29 4 11 -4 13 -1 7 8 -5 9 -4 11 3 6 7
-4 12 -2 12 3 0 6 2 11 4 11 3 0 4 -9 3 -19z m-1547 -1 c0 -5 -5 -10 -11 -10
-5 0 -7 5 -4 10 3 6 8 10 11 10 2 0 4 -4 4 -10z m178 -18 c2 -7 -2 -10 -12 -6
-9 3 -16 11 -16 16 0 13 23 5 28 -10z m2083 -15 c-1 -12 -15 -9 -19 4 -3 6 1
10 8 8 6 -3 11 -8 11 -12z m-761 -39 c0 -19 -2 -20 -10 -8 -13 19 -13 30 0 30
6 0 10 -10 10 -22z m90 13 c0 -5 -6 -11 -13 -14 -8 -3 -14 1 -14 9 0 8 6 14
14 14 7 0 13 -4 13 -9z m-1334 -13 c-2 -14 -9 -18 -28 -18 -8 0 -5 7 6 15 24
18 25 18 22 3z m1454 -6 c0 -13 -12 -22 -22 -16 -10 6 -1 24 13 24 5 0 9 -4 9
-8z m680 -12 c0 -5 -5 -10 -11 -10 -5 0 -7 5 -4 10 3 6 8 10 11 10 2 0 4 -4 4
-10z m-70 -40 c0 -5 -7 -7 -15 -4 -8 4 -15 8 -15 10 0 2 7 4 15 4 8 0 15 -4
15 -10z m-645 -20 c3 -5 -1 -10 -10 -10 -9 0 -13 5 -10 10 3 6 8 10 10 10 2 0
7 -4 10 -10z m-75 -22 c0 -4 -4 -8 -9 -8 -6 0 -12 4 -15 8 -3 5 1 9 9 9 8 0
15 -4 15 -9z m70 -2 c0 -2 -7 -7 -16 -10 -8 -3 -12 -2 -9 4 6 10 25 14 25 6z
m792 -53 c50 -26 98 -57 107 -68 9 -12 25 -25 36 -29 13 -5 16 -10 7 -13 -13
-5 -95 31 -115 51 -7 7 -28 18 -47 24 -32 11 -33 10 -16 -3 11 -8 24 -15 30
-15 5 0 7 -2 4 -5 -9 -10 -58 18 -58 32 0 8 -16 21 -35 29 -36 15 -48 44 -19
44 9 0 57 -21 106 -47z m-220 26 c2 -7 17 -13 33 -15 30 -3 72 -34 46 -34 -11
0 -9 -5 4 -20 10 -11 15 -23 11 -27 -4 -4 -10 -2 -14 4 -4 7 -26 20 -47 29
-43 18 -55 29 -55 57 0 19 16 23 22 6z m-557 -29 c3 -5 1 -10 -4 -10 -6 0 -11
5 -11 10 0 6 2 10 4 10 3 0 8 -4 11 -10z m-20 -30 c11 -17 -5 -31 -19 -17 -14
12 -12 27 4 27 5 0 12 -4 15 -10z m590 -9 c3 -5 1 -12 -5 -16 -5 -3 -10 -1
-10 5 0 6 -5 8 -12 4 -7 -4 -8 -3 -4 4 9 14 23 15 31 3z m123 -46 c14 -16 17
-25 9 -25 -22 0 -51 26 -43 38 9 16 9 16 34 -13z m-788 -103 c0 -4 -10 -13
-22 -21 -23 -14 -23 -14 -4 8 20 22 26 25 26 13z m-1715 -22 c3 -5 1 -10 -4
-10 -6 0 -11 5 -11 10 0 6 2 10 4 10 3 0 8 -4 11 -10z m1505 -100 c0 -5 -4
-10 -10 -10 -5 0 -10 5 -10 10 0 6 5 10 10 10 6 0 10 -4 10 -10z m-935 -30 c3
-5 1 -10 -4 -10 -6 0 -11 5 -11 10 0 6 2 10 4 10 3 0 8 -4 11 -10z m1292 -22
c-3 -8 -6 -5 -6 6 -1 11 2 17 5 13 3 -3 4 -12 1 -19z m-17 -8 c0 -5 -4 -10
-10 -10 -5 0 -10 5 -10 10 0 6 5 10 10 10 6 0 10 -4 10 -10z m20 -40 c0 -5 -4
-10 -10 -10 -5 0 -10 5 -10 10 0 6 5 10 10 10 6 0 10 -4 10 -10z"/>
<path d="M871 4008 c9 -7 19 -27 23 -44 5 -21 16 -35 34 -43 l27 -12 -25 21
c-23 18 -23 20 -5 20 19 1 18 2 -2 12 -13 6 -23 17 -23 24 0 7 -10 18 -22 24
-20 10 -21 9 -7 -2z"/>
<path d="M4507 3999 c7 -7 15 -10 18 -7 3 3 -2 9 -12 12 -14 6 -15 5 -6 -5z"/>
<path d="M4547 3979 c7 -7 15 -10 18 -7 3 3 -2 9 -12 12 -14 6 -15 5 -6 -5z"/>
<path d="M840 3966 c0 -2 7 -7 16 -10 8 -3 12 -2 9 4 -6 10 -25 14 -25 6z"/>
<path d="M1070 3953 c0 -11 5 -11 20 -3 11 6 20 12 20 13 0 2 -9 3 -20 3 -11
0 -20 -6 -20 -13z"/>
<path d="M1490 3790 c0 -20 1 -20 25 -4 14 9 25 18 25 20 0 2 -11 4 -25 4 -18
0 -25 -5 -25 -20z"/>
<path d="M1308 3717 c-5 -24 17 -54 27 -38 3 5 -1 12 -7 14 -8 3 -5 6 6 6 12
1 16 -4 12 -14 -9 -24 23 -31 39 -9 17 24 13 30 -30 38 -20 4 -33 11 -30 17 4
5 2 9 -3 9 -5 0 -12 -10 -14 -23z"/>
<path d="M1415 3680 c3 -5 11 -10 16 -10 6 0 7 5 4 10 -3 6 -11 10 -16 10 -6
0 -7 -4 -4 -10z"/>
<path d="M2880 2830 c1 -409 3 -530 13 -530 7 0 26 -9 42 -21 28 -19 28 -20 5
-13 -14 3 -26 10 -28 15 -6 14 -32 -2 -32 -20 0 -14 2 -14 10 -1 8 11 12 12
18 3 11 -17 374 -16 384 1 6 8 8 7 8 -2 0 -9 26 -12 99 -11 l100 1 1 188 c0
142 -3 190 -12 193 -10 4 -10 7 0 15 17 12 15 563 -2 574 -8 5 -7 8 2 8 6 0
12 5 12 11 0 8 -6 7 -17 -2 -13 -11 -17 -11 -20 -1 -3 6 -13 12 -24 12 -10 0
-19 5 -19 11 0 6 6 9 14 6 26 -10 26 22 1 39 -30 20 -33 34 -5 27 11 -3 20
-12 20 -20 0 -8 5 -11 11 -7 7 4 10 -2 8 -17 -2 -13 1 -25 6 -26 6 -1 9 5 7
13 -2 8 2 14 8 14 5 0 10 16 10 35 l0 35 -135 0 c-131 0 -135 -1 -123 -19 15
-24 -6 -55 -31 -46 -9 4 -25 9 -36 11 -11 2 -21 8 -23 14 -11 32 -33 38 -152
39 l-120 2 0 -531z m256 493 c-7 -7 -26 7 -26 19 0 6 6 6 15 -2 9 -7 13 -15
11 -17z m137 -29 c-4 -12 0 -14 19 -9 18 5 27 2 31 -9 4 -9 13 -16 22 -16 28
0 16 -28 -14 -32 -17 -2 -28 -1 -25 4 3 4 -1 8 -8 8 -10 0 -10 2 1 9 10 7 10
10 1 16 -7 4 -15 3 -19 -3 -4 -6 -17 -9 -29 -5 l-22 5 23 24 c26 28 28 29 20
8z m151 -95 c-2 -4 -11 -6 -19 -3 -8 4 -12 11 -8 17 4 6 1 8 -8 5 -10 -4 -14
3 -15 24 l-1 28 28 -31 c16 -18 26 -36 23 -40z m32 26 c4 -8 10 -13 14 -10 12
8 18 -18 9 -40 -4 -11 -8 -14 -8 -7 -1 6 -8 12 -16 12 -8 0 -15 6 -16 13 0 6
-2 20 -4 30 -4 21 13 23 21 2z m-26 -49 c0 -3 -4 -8 -10 -11 -5 -3 -10 -1 -10
4 0 6 5 11 10 11 6 0 10 -2 10 -4z m-150 -231 c0 -8 -4 -15 -8 -15 -5 0 -9 7
-9 15 0 8 4 15 9 15 4 0 8 -7 8 -15z m-375 -35 c3 -5 1 -10 -4 -10 -6 0 -11 5
-11 10 0 6 2 10 4 10 3 0 8 -4 11 -10z m315 -100 c0 -5 -2 -10 -4 -10 -3 0 -8
5 -11 10 -3 6 -1 10 4 10 6 0 11 -4 11 -10z m187 4 c-3 -3 -12 -4 -19 -1 -8 3
-5 6 6 6 11 1 17 -2 13 -5z m-127 -145 c0 -5 -4 -9 -10 -9 -5 0 -10 7 -10 16
0 8 5 12 10 9 6 -3 10 -10 10 -16z m60 -25 c0 -8 -4 -12 -10 -9 -5 3 -10 10
-10 16 0 5 5 9 10 9 6 0 10 -7 10 -16z m-430 -190 c0 -8 -4 -12 -10 -9 -5 3
-10 10 -10 16 0 5 5 9 10 9 6 0 10 -7 10 -16z m125 -4 c3 -5 1 -10 -4 -10 -6
0 -11 5 -11 10 0 6 2 10 4 10 3 0 8 -4 11 -10z m175 0 c0 -5 8 -10 17 -10 9 0
14 -2 11 -5 -9 -9 -58 6 -52 16 7 12 24 11 24 -1z m-265 -29 c3 -5 1 -12 -5
-16 -5 -3 -10 1 -10 9 0 18 6 21 15 7z m355 -36 c0 -8 -4 -15 -10 -15 -5 0
-10 7 -10 15 0 8 5 15 10 15 6 0 10 -7 10 -15z m-33 -11 c-3 -3 -12 -4 -19 -1
-8 3 -5 6 6 6 11 1 17 -2 13 -5z m-207 -44 c0 -5 -5 -10 -11 -10 -5 0 -7 5 -4
10 3 6 8 10 11 10 2 0 4 -4 4 -10z m192 -17 c-5 -10 -7 -23 -5 -29 2 -6 -3
-14 -11 -17 -12 -5 -15 0 -14 21 2 26 14 42 31 42 4 0 4 -8 -1 -17z m98 -2 c0
-6 -4 -13 -10 -16 -5 -3 -10 1 -10 9 0 9 5 16 10 16 6 0 10 -4 10 -9z"/>
<path d="M3200 3350 c0 -5 5 -10 11 -10 5 0 7 5 4 10 -3 6 -8 10 -11 10 -2 0
-4 -4 -4 -10z"/>
<path d="M3600 3322 c0 -6 9 -12 20 -15 11 -3 20 -3 20 -1 0 2 -9 8 -20 14
-11 6 -20 7 -20 2z"/>
<path d="M3666 3286 c10 -8 21 -12 24 -10 5 6 -21 24 -34 24 -6 0 -1 -6 10
-14z"/>
<path d="M5370 3217 c14 -14 26 -24 28 -22 7 7 -9 25 -31 37 -20 10 -20 9 3
-15z"/>
<path d="M1742 1966 c-18 -6 -49 -27 -68 -45 -64 -63 -64 -65 -62 -751 l3
-615 95 0 95 0 3 183 2 182 140 0 140 0 2 -182 3 -183 100 0 100 0 3 615 c2
686 2 688 -62 751 -54 52 -81 57 -281 57 -115 0 -192 -4 -213 -12z m328 -196
c19 -19 20 -33 20 -340 l0 -320 -140 0 -140 0 0 320 c0 388 -11 360 140 360
87 0 103 -3 120 -20z"/>
<path d="M775 1948 c-3 -13 -4 -331 -3 -708 l3 -685 100 0 100 0 3 183 2 183
71 -3 70 -3 82 -180 82 -180 103 -3 c83 -2 102 0 102 12 0 7 -38 97 -85 200
-47 102 -85 189 -85 193 0 4 17 17 37 28 43 23 79 71 94 127 6 25 9 161 7 371
-3 320 -4 333 -25 373 -28 52 -72 90 -121 104 -21 5 -145 10 -284 10 l-248 0
-5 -22z m455 -188 c19 -19 20 -33 20 -314 l0 -295 -27 -21 c-24 -18 -37 -20
-132 -18 l-106 3 -3 333 -2 332 115 0 c102 0 117 -2 135 -20z"/>
<path d="M2475 1958 c-3 -7 -4 -326 -3 -708 l3 -695 274 0 275 0 6 25 c4 14
10 55 14 92 l7 68 -183 2 -183 3 -3 613 -2 612 -100 0 c-71 0 -102 -4 -105
-12z"/>
<path d="M3162 1263 l3 -708 271 -3 c215 -2 274 0 282 11 6 7 14 50 18 95 l7
82 -186 0 -187 0 -2 613 -3 612 -103 3 -102 3 2 -708z"/>
<path d="M3744 1957 c-3 -8 -4 -205 -2 -438 l3 -424 26 -56 c31 -66 84 -103
161 -114 l48 -7 2 -182 3 -181 100 0 100 0 3 180 2 181 62 11 c34 7 73 20 87
31 34 25 68 76 81 121 6 21 10 208 10 464 l0 428 -97 -3 -98 -3 -3 -407 -2
-407 -28 -21 c-24 -19 -37 -21 -119 -18 -72 2 -96 7 -110 21 -17 16 -18 51
-23 425 l-5 407 -98 3 c-76 2 -99 0 -103 -11z"/>
<path d="M5060 1937 c-28 -14 -51 -34 -61 -54 -9 -18 -19 -30 -21 -27 -7 6
-28 -53 -28 -78 0 -11 5 -16 10 -13 6 3 10 2 10 -3 0 -6 -6 -12 -14 -15 -10
-4 -14 -27 -15 -81 -1 -90 0 -91 116 -101 76 -7 81 -6 87 13 4 11 6 24 5 28
-1 5 -1 37 0 72 2 91 18 104 135 104 132 0 131 0 130 -203 -2 -196 1 -191
-153 -245 -58 -20 -125 -45 -147 -54 -57 -25 -121 -84 -152 -144 l-27 -51 -2
-263 -3 -262 297 0 c216 1 301 4 312 13 12 9 13 9 7 0 -5 -10 5 -13 39 -13
l46 0 -3 88 -3 87 -70 2 c-38 0 -148 2 -242 2 l-173 1 0 149 c0 190 -4 184
175 247 71 26 141 53 155 62 47 29 92 77 118 127 26 49 27 55 30 258 3 178 1
207 -11 207 -19 0 -26 19 -17 45 8 22 -11 60 -24 48 -4 -4 -9 3 -13 15 -11 43
-56 56 -206 60 -81 2 -150 0 -167 -7 -18 -6 -28 -6 -25 -1 11 18 -49 10 -95
-13z m135 -63 c-7 -8 -20 -14 -27 -14 -8 0 -6 5 5 11 9 6 15 14 12 20 -3 5 1
6 9 3 13 -5 13 -8 1 -20z m294 -41 c0 -25 -1 -25 -8 -8 -5 11 -7 23 -4 28 8
14 13 7 12 -20z m-29 -29 c0 -8 -4 -14 -8 -14 -4 0 -8 9 -8 19 0 11 4 17 8 15
4 -3 8 -12 8 -20z m60 -4 c0 -5 -5 -10 -11 -10 -5 0 -7 5 -4 10 3 6 8 10 11
10 2 0 4 -4 4 -10z m-463 -1046 c-3 -3 -12 -4 -19 -1 -8 3 -5 6 6 6 11 1 17
-2 13 -5z m143 -174 c0 -5 -5 -10 -11 -10 -5 0 -7 5 -4 10 3 6 8 10 11 10 2 0
4 -4 4 -10z"/>
<path d="M6135 1941 c-23 -10 -53 -32 -67 -49 -53 -63 -53 -65 -53 -647 l0
-540 29 -53 c19 -33 35 -51 43 -48 7 3 13 -1 13 -9 0 -8 12 -18 28 -21 15 -4
32 -10 37 -14 6 -4 99 -8 207 -9 151 -1 200 2 210 12 7 8 18 12 23 11 14 -5
53 28 57 46 2 8 11 23 21 32 10 9 18 18 17 20 -1 2 2 11 5 21 4 9 5 26 2 37
-3 11 -1 18 4 14 5 -3 8 210 7 528 -3 498 -4 535 -22 568 -33 63 -102 120
-126 105 -6 -3 -10 -1 -10 4 0 8 -64 11 -192 11 -166 0 -199 -3 -233 -19z
m351 -175 c18 -14 19 -33 22 -504 3 -563 9 -528 -88 -536 -30 -3 -56 -5 -57
-6 -7 -5 -50 -2 -68 4 -68 25 -62 9 -70 193 -4 92 -5 316 -2 496 4 294 7 330
23 348 15 16 31 19 119 19 72 0 107 -4 121 -14z m144 -1020 c0 -3 -4 -8 -10
-11 -5 -3 -10 -1 -10 4 0 6 5 11 10 11 6 0 10 -2 10 -4z m50 -6 c0 -5 -4 -10
-10 -10 -5 0 -10 5 -10 10 0 6 5 10 10 10 6 0 10 -4 10 -10z m-440 -21 c0 -6
-4 -7 -10 -4 -5 3 -10 1 -10 -6 0 -7 -3 -10 -6 -6 -10 10 5 39 16 32 5 -3 10
-11 10 -16z m30 -9 c0 -5 -4 -10 -10 -10 -5 0 -10 5 -10 10 0 6 5 10 10 10 6
0 10 -4 10 -10z m185 0 c3 -6 -4 -10 -17 -10 -18 0 -20 2 -8 10 19 12 18 12
25 0z m-55 -10 c0 -5 -2 -10 -4 -10 -3 0 -8 5 -11 10 -3 6 -1 10 4 10 6 0 11
-4 11 -10z m-107 -35 c4 -8 3 -16 -1 -19 -4 -3 -9 4 -9 15 -2 23 3 25 10 4z
m107 -15 c0 -5 -5 -10 -11 -10 -5 0 -7 5 -4 10 3 6 8 10 11 10 2 0 4 -4 4 -10z
m130 -34 c0 -9 -7 -12 -20 -9 -11 3 -17 9 -14 14 8 14 34 10 34 -5z"/>
<path d="M5746 723 c-9 -24 -7 -79 5 -110 7 -19 7 -29 0 -31 -6 -2 -9 -8 -5
-13 3 -5 43 -9 90 -9 l84 0 0 81 c0 61 -3 78 -12 73 -10 -6 -10 -4 0 8 11 14
4 16 -72 16 -66 0 -86 -3 -90 -15z m29 -92 c-6 -5 -25 10 -25 20 0 5 6 4 14
-3 8 -7 12 -15 11 -17z"/>
<path d="M6763 666 c12 -9 17 -27 17 -60 0 -25 5 -46 10 -46 6 0 10 23 10 50
0 28 5 50 10 50 6 0 10 5 10 10 0 6 -17 10 -37 10 -34 -1 -36 -2 -20 -14z"/>
<path d="M6840 620 c0 -33 4 -60 10 -60 6 0 10 10 11 23 l0 22 9 -22 c12 -31
26 -29 36 5 l7 27 7 -30 c6 -23 8 -16 9 33 1 65 -13 84 -24 32 -10 -43 -22
-45 -35 -5 -17 53 -30 42 -30 -25z"/>
</g>
</svg>
