<?xml version="1.0" standalone="no"?>
<!DOCTYPE svg PUBLIC "-//W3C//DTD SVG 20010904//EN"
 "http://www.w3.org/TR/2001/REC-SVG-20010904/DTD/svg10.dtd">
<svg version="1.0" xmlns="http://www.w3.org/2000/svg"
 width="1140.000000pt" height="944.000000pt" viewBox="0 0 1140.000000 944.000000"
 preserveAspectRatio="xMidYMid meet">

<g transform="translate(0.000000,944.000000) scale(0.100000,-0.100000)"
fill="#000000" stroke="none">
<path d="M7636 7738 l-1696 -1701 0 -1028 c0 -1127 -5 -1045 62 -1055 32 -5
42 4 478 443 245 246 995 1002 1667 1678 672 677 1230 1242 1241 1256 20 25
21 43 28 1045 5 780 4 1025 -5 1042 -8 16 -21 22 -45 22 -32 0 -146 -112
-1730 -1702z"/>
<path d="M4464 6532 c-512 -510 -1726 -1719 -2699 -2687 l-1768 -1760 7 -90
c3 -49 9 -508 12 -1020 l6 -930 27 -22 c14 -13 33 -23 42 -23 9 0 92 78 185
173 244 249 3205 3201 3215 3205 5 2 9 -397 9 -902 l0 -905 30 -16 c16 -8 40
-15 53 -15 18 0 247 223 960 933 l937 934 0 2010 c0 1934 -1 2011 -18 2026
-10 10 -29 17 -43 17 -18 0 -240 -216 -955 -928z"/>
<path d="M10805 6958 c-570 -575 -2898 -2908 -2902 -2908 -2 0 -3 248 -3 550
l0 551 -24 22 c-58 54 -4 102 -1010 -910 l-926 -931 0 -663 c1 -540 3 -667 14
-682 13 -17 65 -17 1027 -12 l1014 6 1688 1691 c929 930 1693 1701 1698 1715
10 27 12 1968 2 2018 -7 34 -29 54 -59 55 -14 0 -174 -154 -519 -502z"/>
</g>
</svg>
